<?xml version="1.0" encoding="utf-8"?>
<svg width="85px" height="85px" viewBox="0 0 85 85" version="1.1" xmlns:xlink="http://www.w3.org/1999/xlink" xmlns="http://www.w3.org/2000/svg">
  <desc>Created with Lunacy</desc>
  <defs>
    <path d="M0 0L100 0L100 100L0 100L0 0Z" id="path_1" />
    <rect width="85" height="85" id="artboard_1" />
    <clipPath id="clip_1">
      <use xlink:href="#artboard_1" clip-rule="evenodd" />
    </clipPath>
    <clipPath id="mask_1">
      <use xlink:href="#path_1" />
    </clipPath>
  </defs>
  <g id="Artboard" clip-path="url(#clip_1)">
    <use xlink:href="#artboard_1" stroke="none" fill="#FFFFFF" fill-opacity="0" />
    <g id="svg" transform="translate(-8 -7)">
      <path d="M0 0L100 0L100 100L0 100L0 0Z" id="Background" fill="none" stroke="none" />
      <g clip-path="url(#mask_1)">
        <path d="M2 0C0.895431 0 0 0.895432 0 2C0 3.10457 0.895431 4 2 4C3.10457 4 4 3.10457 4 2C4 0.89543 3.10457 0 2 0L2 0Z" transform="translate(11 27)" id="Shape" fill="#EE3E54" stroke="none" />
        <path d="M1 0C0.447716 0 0 0.447716 0 1C0 1.55229 0.447716 2 1 2C1.55228 2 2 1.55229 2 1C2 0.447715 1.55228 0 1 0L1 0Z" transform="translate(76 12)" id="Shape" fill="#F1BC19" stroke="none" />
        <path d="M37 0C16.5655 0 0 16.5655 0 37C3.8147e-06 57.4345 16.5655 74 37 74C57.4345 74 74 57.4345 74 37C74 16.5655 57.4345 0 37 0L37 0Z" transform="translate(13 13)" id="Shape" fill="#FCE0A2" stroke="none" />
        <path d="M4 0C1.79086 0 0 1.79086 0 4C0 6.20914 1.79086 8 4 8C6.20914 8 8 6.20914 8 4C8 1.79086 6.20914 0 4 0L4 0Z" transform="translate(79 11)" id="Shape" fill="#F1BC19" stroke="none" />
        <path d="M2 0C0.895432 0 0 0.895432 0 2C0 3.10457 0.895432 4 2 4C3.10457 4 4 3.10457 4 2C4 0.89543 3.10457 0 2 0L2 0Z" transform="translate(85 22)" id="Shape" fill="#EE3E54" stroke="none" />
        <path d="M0 4C0 1.79086 1.79086 0 4 0C6.20914 0 8 1.79086 8 4C8 6.20914 6.20914 8 4 8C1.79086 8 0 6.20914 0 4ZM68 17C68 15.8954 68.8954 15 70 15C71.1046 15 72 15.8954 72 17C72 18.1046 71.1046 19 70 19C68.8954 19 68 18.1046 68 17Z" transform="translate(11 59)" id="Shape" fill="#FBCD59" fill-rule="evenodd" stroke="none" />
        <path d="M2 0C0.89543 0 0 0.895432 0 2C0 3.10457 0.89543 4 2 4C3.10457 4 4 3.10457 4 2C4 0.895432 3.10457 0 2 0L2 0Z" transform="translate(23 85)" id="Shape" fill="#EE3E54" stroke="none" />
        <path d="M2.5 0C1.11929 0 0 1.11929 0 2.5C0 3.88071 1.11929 5 2.5 5C3.88071 5 5 3.88071 5 2.5C5 1.11929 3.88071 0 2.5 0L2.5 0Z" transform="translate(16 51)" id="Shape" fill="#FFFFFF" stroke="none" />
        <path d="M1 0C0.447716 0 0 0.447716 0 1C0 1.55228 0.447716 2 1 2C1.55228 2 2 1.55228 2 1C2 0.447716 1.55228 0 1 0L1 0Z" transform="translate(20 66)" id="Shape" fill="#F1BC19" stroke="none" />
        <path d="M1 0C0.447716 0 0 0.447716 0 1C0 1.55228 0.447716 2 1 2C1.55228 2 2 1.55228 2 1C2 0.447716 1.55228 0 1 0L1 0Z" transform="translate(79 33)" id="Shape" fill="#FFFFFF" stroke="none" />
        <path d="M7.3 44.6C3.275 44.6 0 41.326 0 37.3L0 7.3C0 3.275 3.274 0 7.3 0L37.3 0C41.325 0 44.6 3.274 44.6 7.3L44.6 37.3C44.6 41.325 41.326 44.6 37.3 44.6L7.3 44.6L7.3 44.6Z" transform="translate(27.700012 27.700012)" id="Shape" fill="#88CDD7" stroke="none" />
        <path d="M8 0L38 0C42.4 0 46 3.6 46 8L46 38C46 42.4 42.4 46 38 46L8 46C3.6 46 0 42.4 0 38L0 8C0 3.6 3.6 0 8 0ZM44.6 8C44.6 4.361 41.639 1.4 38 1.4L8 1.4C4.361 1.4 1.4 4.361 1.4 8L1.4 38C1.4 41.639 4.361 44.6 8 44.6L38 44.6C41.639 44.6 44.6 41.639 44.6 38L44.6 8Z" transform="translate(27 27)" id="Shape" fill="#472B29" fill-rule="evenodd" stroke="none" />
        <path d="M7.875 0C9.601 0 11 1.399 11 3.125L11 7.875C11 9.601 9.601 11 7.875 11L3.125 11C1.399 11 0 9.601 0 7.875L0 3.125C0 1.399 1.399 0 3.125 0" transform="translate(32.5 32.5)" id="Shape" fill="#88CDD7" stroke="none" />
        <path d="M8.375 12L3.625 12C1.626 12 0 10.374 0 8.375L0 3.625C0 1.626 1.626 0 3.625 0C3.901 0 4.125 0.223999 4.125 0.5C4.125 0.776001 3.901 1 3.625 1C2.178 1 1 2.178 1 3.625L1 8.375C1 9.822 2.178 11 3.625 11L8.375 11C9.822 11 11 9.822 11 8.375L11 3.625C11 2.178 9.822 1 8.375 1C8.099 1 7.875 0.776001 7.875 0.5C7.875 0.223999 8.099 0 8.375 0C10.374 0 12 1.626 12 3.625L12 8.375C12 10.374 10.374 12 8.375 12L8.375 12Z" transform="translate(32 32)" id="Shape" fill="#472B29" stroke="none" />
        <path d="M1.5 1L0.5 1C0.223999 1 0 0.776001 0 0.5C0 0.223999 0.223999 0 0.5 0L1.5 0C1.776 0 2 0.223999 2 0.5C2 0.776001 1.776 1 1.5 1L1.5 1Z" transform="translate(36.895996 32)" id="Shape" fill="#472B29" stroke="none" />
        <path d="M3.58 5L1.42 5C0.635998 5 0 4.364 0 3.58L0 1.42C0 0.635998 0.636002 0 1.42 0L3.579 0C4.363 0 4.999 0.636002 4.999 1.42L4.999 3.579C5 4.364 4.364 5 3.58 5L3.58 5Z" transform="translate(35.5 35.5)" id="Shape" fill="#48BED8" stroke="none" />
        <path d="M1.671 5.5L3.829 5.5C4.75 5.5 5.5 4.75 5.5 3.829L5.5 1.671C5.5 0.75 4.75 0 3.829 0L1.671 0C0.75 0 0 0.75 0 1.671L0 3.829C0 4.75 0.75 5.5 1.671 5.5ZM0.5 1.67101C0.5 1.02501 1.025 0.500004 1.671 0.500004L3.829 0.500004C4.475 0.500004 5 1.02501 5 1.67101L5 3.82901C5 4.47501 4.475 5.00001 3.829 5.00001L1.671 5.00001C1.025 5.00001 0.5 4.47501 0.5 3.82901L0.5 1.67101Z" transform="translate(35.25 35.25)" id="Shape" fill="#472B29" fill-rule="evenodd" stroke="none" />
        <path d="M11 7.875C11 9.601 9.601 11 7.875 11L3.125 11C1.399 11 0 9.601 0 7.875L0 3.125C0 1.399 1.399 0 3.125 0L7.875 0C9.601 0 11 1.399 11 3.125L11 5.687" transform="translate(56.5 32.5)" id="Shape" fill="#88CDD7" stroke="none" />
        <path d="M8.375 12L3.625 12C1.626 12 0 10.374 0 8.375L0 3.625C0 1.626 1.626 0 3.625 0L8.375 0C10.374 0 12 1.626 12 3.625L12 6.188C12 6.464 11.776 6.688 11.5 6.688C11.224 6.688 11 6.464 11 6.188L11 3.625C11 2.178 9.822 1 8.375 1L3.625 1C2.178 1 1 2.178 1 3.625L1 8.375C1 9.822 2.178 11 3.625 11L8.375 11C9.822 11 11 9.822 11 8.375C11 8.099 11.224 7.875 11.5 7.875C11.776 7.875 12 8.099 12 8.375C12 10.374 10.374 12 8.375 12L8.375 12Z" transform="translate(56 32)" id="Shape" fill="#472B29" stroke="none" />
        <path d="M3.58 5L1.42 5C0.635998 5 0 4.364 0 3.58L0 1.42C0 0.635998 0.636002 0 1.42 0L3.579 0C4.363 0 4.999 0.636002 4.999 1.42L4.999 3.579C5 4.364 4.364 5 3.58 5L3.58 5Z" transform="translate(59.5 35.5)" id="Shape" fill="#48BED8" stroke="none" />
        <path d="M1.671 5.5L3.829 5.5C4.75 5.5 5.5 4.75 5.5 3.829L5.5 1.671C5.5 0.75 4.75 0 3.829 0L1.671 0C0.75 0 0 0.75 0 1.671L0 3.829C0 4.75 0.75 5.5 1.671 5.5ZM0.5 1.67101C0.5 1.02501 1.025 0.500004 1.671 0.500004L3.829 0.500004C4.475 0.500004 5 1.02501 5 1.67101L5 3.82901C5 4.47501 4.475 5.00001 3.829 5.00001L1.671 5.00001C1.025 5.00001 0.5 4.47501 0.5 3.82901L0.5 1.67101Z" transform="translate(59.25 35.25)" id="Shape" fill="#472B29" fill-rule="evenodd" stroke="none" />
        <path d="M7.875 11L3.125 11C1.399 11 0 9.601 0 7.875L0 3.125C0 1.399 1.399 0 3.125 0L7.875 0C9.601 0 11 1.399 11 3.125L11 7.875C11 9.601 9.601 11 7.875 11L7.875 11Z" transform="translate(32.5 56.5)" id="Shape" fill="#88CDD7" stroke="none" />
        <path d="M3.625 12L8.375 12C10.374 12 12 10.374 12 8.375L12 3.625C12 1.626 10.374 0 8.375 0L3.625 0C1.626 0 0 1.626 0 3.625L0 8.375C0 10.374 1.626 12 3.625 12ZM1 3.625C1 2.178 2.178 1 3.625 1L8.375 1C9.822 1 11 2.178 11 3.625L11 8.375C11 9.822 9.822 11 8.375 11L3.625 11C2.178 11 1 9.822 1 8.375L1 3.625Z" transform="translate(32 56)" id="Shape" fill="#472B29" fill-rule="evenodd" stroke="none" />
        <path d="M3.58 5L1.42 5C0.635998 5 0 4.364 0 3.58L0 1.42C0 0.635998 0.636002 0 1.42 0L3.579 0C4.363 0 4.999 0.636002 4.999 1.42L4.999 3.579C5 4.364 4.364 5 3.58 5L3.58 5Z" transform="translate(35.5 59.5)" id="Shape" fill="#48BED8" stroke="none" />
        <path d="M12.603 3L13.898 3C14.368 3 14.75 2.618 14.75 2.147L14.75 0.852001C14.75 0.382 14.368 0 13.897 0L12.602 0C12.132 0 11.75 0.382 11.75 0.853001L11.75 2.148C11.75 2.618 12.132 3 12.603 3ZM19.898 3L18.603 3C18.132 3 17.75 2.618 17.75 2.148L17.75 0.853001C17.75 0.382 18.132 0 18.602 0L19.897 0C20.368 0 20.75 0.382 20.75 0.852001L20.75 2.147C20.75 2.618 20.368 3 19.898 3ZM24.603 3L25.898 3C26.368 3 26.75 2.618 26.75 2.147L26.75 0.852001C26.75 0.382 26.368 0 25.897 0L24.602 0C24.132 0 23.75 0.382 23.75 0.853001L23.75 2.148C23.75 2.618 24.132 3 24.603 3ZM31.898 3L30.603 3C30.132 3 29.75 2.618 29.75 2.148L29.75 0.853001C29.75 0.382 30.132 0 30.602 0L31.897 0C32.368 0 32.75 0.382 32.75 0.852001L32.75 2.147C32.75 2.618 32.368 3 31.898 3ZM16.898 6L15.603 6C15.132 6 14.75 5.618 14.75 5.148L14.75 3.853C14.75 3.382 15.132 3 15.602 3L16.897 3C17.368 3 17.75 3.382 17.75 3.852L17.75 5.147C17.75 5.618 17.368 6 16.898 6ZM13.898 9L12.603 9C12.132 9 11.75 8.618 11.75 8.148L11.75 6.853C11.75 6.382 12.132 6 12.602 6L13.897 6C14.368 6 14.75 6.382 14.75 6.852L14.75 8.147C14.75 8.618 14.368 9 13.898 9ZM1.671 11.75L3.829 11.75C4.75 11.75 5.5 11 5.5 10.079L5.5 7.921C5.5 7 4.75 6.25 3.829 6.25L1.671 6.25C0.75 6.25 0 7 0 7.921L0 10.079C0 11 0.75 11.75 1.671 11.75ZM0.5 7.921C0.5 7.275 1.025 6.75 1.671 6.75L3.829 6.75C4.475 6.75 5 7.275 5 7.921L5 10.079C5 10.725 4.475 11.25 3.829 11.25L1.671 11.25C1.025 11.25 0.5 10.725 0.5 10.079L0.5 7.921ZM15.603 12L16.898 12C17.368 12 17.75 11.618 17.75 11.147L17.75 9.852C17.75 9.382 17.368 9 16.897 9L15.602 9C15.132 9 14.75 9.382 14.75 9.853L14.75 11.148C14.75 11.618 15.132 12 15.603 12ZM12.603 15L13.898 15C14.368 15 14.75 14.618 14.75 14.147L14.75 12.852C14.75 12.382 14.368 12 13.897 12L12.602 12C12.132 12 11.75 12.382 11.75 12.853L11.75 14.148C11.75 14.618 12.132 15 12.603 15Z" transform="translate(35.25 53)" id="Shape" fill="#472B29" fill-rule="evenodd" stroke="none" />
        <g id="Group" transform="translate(53 59)">
          <path d="M2.148 3L0.853001 3C0.382 3 0 2.618 0 2.148L0 0.853001C0 0.382 0.382 0 0.852001 0L2.147 0C2.618 0 3 0.382 3 0.852001L3 2.147C3 2.618 2.618 3 2.148 3L2.148 3Z" id="Shape" fill="#472B29" stroke="none" />
        </g>
        <g id="Group" transform="translate(56 62)">
          <path d="M2.148 3L0.853001 3C0.382 3 0 2.618 0 2.148L0 0.853005C0 0.382 0.382 0 0.852001 0L2.147 0C2.618 0 3 0.382 3 0.852001L3 2.147C3 2.618 2.618 3 2.148 3L2.148 3Z" id="Shape" fill="#472B29" stroke="none" />
        </g>
        <g id="Group" transform="translate(65 59)">
          <path d="M2.148 3L0.853005 3C0.382004 3 0 2.618 0 2.148L0 0.853001C0 0.382 0.382004 0 0.851997 0L2.147 0C2.618 0 3 0.382 3 0.852001L3 2.147C3 2.618 2.618 3 2.148 3L2.148 3Z" id="Shape" fill="#472B29" stroke="none" />
        </g>
        <g id="Group" transform="translate(50 44)">
          <path d="M2.148 3L0.853001 3C0.382 3 0 2.618 0 2.148L0 0.853001C0 0.382 0.382 0 0.852001 0L2.147 0C2.618 0 3 0.382 3 0.852001L3 2.147C3 2.618 2.618 3 2.148 3L2.148 3Z" id="Shape" fill="#472B29" stroke="none" />
        </g>
        <g id="Group" transform="translate(50 38)">
          <path d="M2.148 3L0.853001 3C0.382 3 0 2.618 0 2.148L0 0.853001C0 0.382 0.382 0 0.852001 0L2.147 0C2.618 0 3 0.382 3 0.852001L3 2.147C3 2.618 2.618 3 2.148 3L2.148 3Z" id="Shape" fill="#472B29" stroke="none" />
        </g>
        <g id="Group" transform="translate(47 35)">
          <path d="M2.148 3L0.853001 3C0.382 3 0 2.618 0 2.148L0 0.853001C0 0.382 0.382 0 0.852001 0L2.147 0C2.618 0 3 0.382 3 0.852001L3 2.147C3 2.618 2.618 3 2.148 3L2.148 3Z" id="Shape" fill="#472B29" stroke="none" />
        </g>
        <g id="Group" transform="translate(50 32)">
          <path d="M2.148 3L0.853001 3C0.382 3 0 2.618 0 2.148L0 0.853001C0 0.382 0.382 0 0.852001 0L2.147 0C2.618 0 3 0.382 3 0.852001L3 2.147C3 2.618 2.618 3 2.148 3L2.148 3Z" id="Shape" fill="#472B29" stroke="none" />
        </g>
        <g id="Group" transform="translate(38 47)">
          <path d="M2.148 3L0.853001 3C0.382 3 0 2.618 0 2.148L0 0.853001C0 0.382 0.382 0 0.852001 0L2.147 0C2.618 0 3 0.382 3 0.852001L3 2.147C3 2.618 2.618 3 2.148 3L2.148 3Z" id="Shape" fill="#472B29" stroke="none" />
        </g>
        <g id="Group" transform="translate(35 50)">
          <path d="M2.148 3L0.853001 3C0.382 3 0 2.618 0 2.148L0 0.853001C0 0.382 0.382 0 0.852001 0L2.147 0C2.618 0 3 0.382 3 0.852001L3 2.147C3 2.618 2.618 3 2.148 3L2.148 3Z" id="Shape" fill="#472B29" stroke="none" />
        </g>
        <g id="Group" transform="translate(41 50)">
          <path d="M2.148 3L0.853001 3C0.382 3 0 2.618 0 2.148L0 0.853001C0 0.382 0.382 0 0.852001 0L2.147 0C2.618 0 3 0.382 3 0.852001L3 2.147C3 2.618 2.618 3 2.148 3L2.148 3Z" id="Shape" fill="#472B29" stroke="none" />
        </g>
        <g id="Group" transform="translate(32 47)">
          <path d="M2.148 3L0.853001 3C0.382 3 0 2.618 0 2.148L0 0.853001C0 0.382 0.382 0 0.852001 0L2.147 0C2.618 0 3 0.382 3 0.852001L3 2.147C3 2.618 2.618 3 2.148 3L2.148 3Z" id="Shape" fill="#472B29" stroke="none" />
        </g>
        <g id="Group" transform="translate(62 50)">
          <path d="M2.148 3L0.853005 3C0.382 3 0 2.618 0 2.148L0 0.853001C0 0.382 0.382 0 0.852001 0L2.147 0C2.618 0 3 0.382 3 0.852001L3 2.147C3 2.618 2.618 3 2.148 3L2.148 3Z" id="Shape" fill="#472B29" stroke="none" />
        </g>
        <g id="Group" transform="translate(65 47)">
          <path d="M2.148 3L0.853005 3C0.382004 3 0 2.618 0 2.148L0 0.853001C0 0.382 0.382004 0 0.851997 0L2.147 0C2.618 0 3 0.382 3 0.852001L3 2.147C3 2.618 2.618 3 2.148 3L2.148 3Z" id="Shape" fill="#472B29" stroke="none" />
        </g>
        <g id="Group" transform="translate(62 56)">
          <path d="M3 0.852001L3 9.147C3 9.618 2.618 10 2.148 10L0.853005 10C0.382 10 0 9.618 0 9.148L0 0.853004C0 0.382 0.382 0 0.852001 0L2.147 0C2.618 0 3 0.382 3 0.852001L3 0.852001Z" id="Shape" fill="#472B29" stroke="none" />
        </g>
        <g id="Group" transform="translate(54 65)">
          <path d="M13.148 3L0.852001 3C0.382 3 0 2.618 0 2.148L0 0.853005C0 0.382004 0.382 0 0.852001 0L13.147 0C13.618 0 14 0.382004 14 0.851997L14 2.147C14 2.618 13.618 3 13.148 3L13.148 3Z" id="Shape" fill="#472B29" stroke="none" />
        </g>
        <g id="Group" transform="translate(50 50)">
          <path d="M8.148 3L0.852997 3C0.382 3 0 2.618 0 2.148L0 0.853001C0 0.382 0.382 0 0.852001 0L8.147 0C8.618 0 9 0.382 9 0.852001L9 2.147C9 2.618 8.618 3 8.148 3L8.148 3Z" id="Shape" fill="#472B29" stroke="none" />
        </g>
        <g id="Group" transform="translate(44 47)">
          <path d="M11.148 3L0.852001 3C0.382 3 0 2.618 0 2.148L0 0.853001C0 0.382 0.382 0 0.852001 0L11.147 0C11.618 0 12 0.382 12 0.852001L12 2.147C12 2.618 11.618 3 11.148 3L11.148 3Z" id="Shape" fill="#472B29" stroke="none" />
        </g>
      </g>
    </g>
  </g>
</svg>